HIERARCHY
ROOT Hips
{
 OFFSET 0.000000 0.000000 0.000000
 CHANNELS 6 Xposition Yposition Zposition Yrotation Xrotation Zrotation
 JOINT Chest
 {
  OFFSET 0.000000 10.366939 -0.000175
  CHANNELS 3 Yrotation Xrotation Zrotation
  JOINT Chest2
  {
   OFFSET 0.000000 11.433790 0.000318
   CHANNELS 3 Yrotation Xrotation Zrotation
   JOINT Chest3
   {
    OFFSET 0.000000 10.331133 0.000000
    CHANNELS 3 Yrotation Xrotation Zrotation
    JOINT Chest4
    {
     OFFSET 0.000000 10.331133 0.000000
     CHANNELS 3 Yrotation Xrotation Zrotation
     JOINT Neck
     {
      OFFSET 0.000000 14.530095 0.000000
      CHANNELS 3 Yrotation Xrotation Zrotation
      JOINT Head
      {
       OFFSET 0.000000 9.616255 0.000757
       CHANNELS 3 Yrotation Xrotation Zrotation
       End Site
       {
        OFFSET 0.000000 18.398191 0.000395
       }
      }
     }
     JOINT RightCollar
     {
      OFFSET -3.159467 8.107572 0.000000
      CHANNELS 3 Yrotation Xrotation Zrotation
      JOINT RightShoulder
      {
       OFFSET -14.759419 0.000000 0.000000
       CHANNELS 3 Yrotation Xrotation Zrotation
       JOINT RightElbow
       {
        OFFSET 0.000000 -31.561777 0.000000
        CHANNELS 3 Yrotation Xrotation Zrotation
        JOINT RightWrist
        {
         OFFSET 0.000000 -25.811607 0.000000
         CHANNELS 3 Yrotation Xrotation Zrotation
         End Site
         {
          OFFSET 0.000000 -19.296333 0.000000
         }
        }
       }
      }
     }
     JOINT LeftCollar
     {
      OFFSET 3.159467 8.107572 0.000000
      CHANNELS 3 Yrotation Xrotation Zrotation
      JOINT LeftShoulder
      {
       OFFSET 14.759419 0.000000 0.000000
       CHANNELS 3 Yrotation Xrotation Zrotation
       JOINT LeftElbow
       {
        OFFSET 0.000000 -31.561777 0.000000
        CHANNELS 3 Yrotation Xrotation Zrotation
        JOINT LeftWrist
        {
         OFFSET 0.000000 -25.811607 0.000000
         CHANNELS 3 Yrotation Xrotation Zrotation
         End Site
         {
          OFFSET 0.000000 -19.296333 0.000000
         }
        }
       }
      }
     }
    }
   }
  }
 }
 JOINT RightHip
 {
  OFFSET -8.420485 0.000859 0.000088
  CHANNELS 3 Yrotation Xrotation Zrotation
  JOINT RightKnee
  {
   OFFSET 0.000000 -43.611855 -0.000083
   CHANNELS 3 Yrotation Xrotation Zrotation
   JOINT RightAnkle
   {
    OFFSET 0.000000 -42.630478 -0.000140
    CHANNELS 3 Yrotation Xrotation Zrotation
    JOINT RightToe
    {
     OFFSET 0.000000 -7.539428 17.119853
     CHANNELS 3 Yrotation Xrotation Zrotation
     End Site
     {
      OFFSET 0.000000 -1.595212 6.940629
     }
    }
   }
  }
 }
 JOINT LeftHip
 {
  OFFSET 8.420485 0.000859 0.000088
  CHANNELS 3 Yrotation Xrotation Zrotation
  JOINT LeftKnee
  {
   OFFSET 0.000000 -43.611855 -0.000083
   CHANNELS 3 Yrotation Xrotation Zrotation
   JOINT LeftAnkle
   {
    OFFSET 0.000000 -42.630478 -0.000140
    CHANNELS 3 Yrotation Xrotation Zrotation
    JOINT LeftToe
    {
     OFFSET 0.000000 -7.539428 17.119853
     CHANNELS 3 Yrotation Xrotation Zrotation
     End Site
     {
      OFFSET 0.000000 -1.595212 6.940629
     }
    }
   }
  }
 }
}
MOTION
Frames: 12
Frame Time: 0.008333
381.578640 47.653243 62.814994 -62.371111 -30.602216 -0.213826 -0.503316 17.586341 -1.011598 -0.212494 7.786433 -0.677665 -0.212494 7.786433 -0.677665 -0.150443 5.840069 -0.504741 -3.972369 13.203770 1.673971 -8.208172 -11.431884 4.784929 -1.762761 0.240125 8.988920 -4.745142 -19.918178 -19.823241 51.892021 -61.789733 -30.204236 15.743667 -18.040694 -34.680013 2.074790 1.831290 -7.787670 -0.025346 -29.778199 13.171105 -54.142646 -31.365886 17.469518 -19.283127 -5.657332 -5.733246 -12.684715 -65.316839 -10.194819 179.073776 74.078948 173.920588 0.381701 -10.068866 -0.871521 -0.027737 0.173019 -0.007270 -4.384305 -66.543041 26.923808 -141.238474 72.993418 -142.975756 -1.014304 -3.837313 -0.262869 -0.220538 -0.867849 -0.103148
381.576268 47.653457 62.812368 -62.375178 -30.601074 -0.219800 -0.503933 17.585852 -1.003410 -0.212741 7.786638 -0.676820 -0.212741 7.786638 -0.676820 -0.150638 5.840223 -0.504105 -3.990590 13.208866 1.675300 -8.242783 -11.420862 4.794317 -1.761086 0.239996 8.973799 -4.758136 -19.915642 -19.812192 51.895929 -61.795784 -30.196624 15.751572 -18.043573 -34.685832 2.081719 1.832330 -7.793508 -0.031857 -29.775505 13.175600 -54.123046 -31.373369 17.439583 -19.295294 -5.646933 -5.726326 -12.712537 -65.314428 -10.160991 179.085256 74.080731 173.929258 0.380633 -10.066345 -0.876623 -0.028032 0.170922 -0.005838 -4.404603 -66.540449 26.951312 -141.225533 72.990970 -142.960109 -1.016131 -3.832682 -0.268853 -0.219253 -0.865821 -0.100965
381.575177 47.652520 62.812521 -62.372750 -30.601040 -0.228671 -0.507231 17.587492 -0.997703 -0.215169 7.786615 -0.676872 -0.215169 7.786615 -0.676872 -0.152456 5.840208 -0.504113 -4.008739 13.216795 1.673125 -8.275612 -11.404901 4.796794 -1.755737 0.240375 8.969605 -4.762783 -19.911993 -19.800645 51.912374 -61.796718 -30.206422 15.758426 -18.044702 -34.698347 2.087856 1.837472 -7.798310 -0.030215 -29.781582 13.175070 -54.133264 -31.366918 17.448135 -19.279562 -5.653546 -5.737050 -12.747834 -65.310716 -10.132412 179.081988 74.083617 173.922906 0.382014 -10.065335 -0.882487 -0.029755 0.170883 -0.006047 -4.421243 -66.544062 26.964799 -141.232358 72.984149 -142.962414 -1.005562 -3.827238 -0.271340 -0.226152 -0.868350 -0.100775
381.572477 47.651418 62.811418 -62.374689 -30.598906 -0.236412 -0.503216 17.588909 -0.988405 -0.215683 7.785754 -0.677248 -0.215683 7.785754 -0.677248 -0.152838 5.839563 -0.504389 -4.025838 13.225712 1.672143 -8.306853 -11.387086 4.801013 -1.758783 0.245886 8.964317 -4.767598 -19.915172 -19.786072 51.925402 -61.795835 -30.213371 15.759094 -18.050037 -34.702281 2.087363 1.837133 -7.796709 -0.022472 -29.777103 13.170509 -54.128004 -31.375582 17.427379 -19.278486 -5.645117 -5.730473 -12.770858 -65.307884 -10.108323 179.082206 74.084537 173.924333 0.383444 -10.066954 -0.887108 -0.030236 0.171306 -0.006450 -4.440274 -66.543391 26.988261 -141.215974 72.976554 -142.937865 -1.009019 -3.833297 -0.283183 -0.217484 -0.863826 -0.096945
381.565995 47.653078 62.810369 -62.402150 -30.626155 -0.250327 -0.469373 17.614075 -0.961360 -0.213995 7.786213 -0.678092 -0.213995 7.786213 -0.678092 -0.151562 5.839906 -0.505041 -4.045803 13.237372 1.674087 -8.344467 -11.363694 4.811667 -1.760811 0.251557 8.962066 -4.775404 -19.913495 -19.776359 51.923872 -61.800912 -30.217104 15.756844 -18.057604 -34.703793 2.086545 1.841857 -7.783340 -0.010450 -29.772162 13.157898 -54.143238 -31.386594 17.446249 -19.268014 -5.652148 -5.744889 -12.791115 -65.268557 -10.064542 179.052295 74.088151 173.902820 0.385398 -10.066688 -0.893903 -0.032519 0.169599 -0.008610 -4.479947 -66.513393 27.053288 -141.217948 72.973590 -142.942829 -0.974565 -3.811412 -0.273326 -0.247949 -0.886578 -0.108239
381.564816 47.651906 62.810749 -62.396851 -30.624753 -0.255645 -0.469382 17.613289 -0.956258 -0.214056 7.786305 -0.679171 -0.214056 7.786305 -0.679171 -0.151594 5.839975 -0.505849 -4.064283 13.249796 1.674657 -8.378652 -11.339125 4.819052 -1.765286 0.254086 8.961929 -4.773001 -19.908489 -19.774718 51.916239 -61.807598 -30.218097 15.753850 -18.070055 -34.705127 2.085815 1.847257 -7.776849 -0.000594 -29.768843 13.145338 -54.144974 -31.403404 17.438318 -19.271126 -5.643603 -5.740903 -12.808800 -65.267341 -10.056200 179.065394 74.088119 173.914423 0.394580 -10.071454 -0.897357 -0.032103 0.171814 -0.009421 -4.511473 -66.510782 27.078492 -141.216073 72.973640 -142.944886 -0.980800 -3.809132 -0.280214 -0.242216 -0.888945 -0.106051
381.572376 47.647526 62.813409 -62.357916 -30.590193 -0.241712 -0.511529 17.578125 -0.992178 -0.213995 7.786394 -0.678343 -0.213995 7.786394 -0.678343 -0.151558 5.840042 -0.505230 -4.082641 13.261960 1.673787 -8.412041 -11.315172 4.823678 -1.765669 0.258249 8.960020 -4.768526 -19.900213 -19.779878 51.910556 -61.817000 -30.221554 15.749815 -18.070511 -34.709564 2.088560 1.852042 -7.769822 0.012419 -29.764662 13.116344 -54.176083 -31.405794 17.473840 -19.253075 -5.650329 -5.754541 -12.797026 -65.315346 -10.117114 179.048537 74.082327 173.892310 0.397022 -10.075462 -0.899266 -0.028842 0.176610 -0.009741 -4.478266 -66.547538 27.004698 -141.204147 72.975348 -142.937138 -1.000391 -3.828238 -0.287325 -0.223107 -0.865883 -0.096145
381.573409 47.646054 62.812162 -62.349175 -30.581724 -0.242227 -0.517955 17.571501 -0.994351 -0.213638 7.785952 -0.678238 -0.213638 7.785952 -0.678238 -0.151293 5.839710 -0.505156 -4.100077 13.275250 1.673642 -8.443879 -11.289138 4.829199 -1.767991 0.265678 8.954097 -4.765230 -19.896601 -19.773724 51.892543 -61.820331 -30.211949 15.750099 -18.076800 -34.723664 2.090652 1.857082 -7.762215 0.025377 -29.756845 13.092003 -54.179299 -31.423602 17.469871 -19.258864 -5.640763 -5.747160 -12.796973 -65.324179 -10.127571 179.034678 74.081684 173.882235 0.396993 -10.076007 -0.899644 -0.028245 0.177508 -0.012187 -4.479790 -66.554568 26.997113 -141.199958 72.980154 -142.930844 -1.003283 -3.828885 -0.292739 -0.220539 -0.863338 -0.094704
381.574028 47.645054 62.810921 -62.341462 -30.579617 -0.246162 -0.521867 17.569407 -0.993612 -0.212868 7.787136 -0.677113 -0.212868 7.787136 -0.677113 -0.150729 5.840596 -0.504323 -4.117275 13.289577 1.673822 -8.475310 -11.261172 4.835137 -1.773820 0.268641 8.944811 -4.762430 -19.892445 -19.768750 51.875546 -61.834362 -30.204977 15.751880 -18.072614 -34.722866 2.083235 1.854770 -7.761998 0.048763 -29.744837 13.070783 -54.207789 -31.437737 17.494425 -19.241008 -5.634491 -5.750273 -12.804258 -65.326766 -10.132157 179.042451 74.082045 173.892756 0.406419 -10.073341 -0.899531 -0.028435 0.176464 -0.016151 -4.495318 -66.553843 27.005134 -141.199684 72.982329 -142.932913 -1.002888 -3.836209 -0.298242 -0.222188 -0.859549 -0.092346
381.574382 47.642938 62.808831 -62.336861 -30.575852 -0.251870 -0.521795 17.567036 -0.988602 -0.213276 7.786457 -0.677201 -0.213276 7.786457 -0.677201 -0.151035 5.840088 -0.504384 -4.133052 13.306746 1.675036 -8.504228 -11.227961 4.842200 -1.769473 0.273986 8.942791 -4.765123 -19.891048 -19.764583 51.861073 -61.837115 -30.196100 15.751229 -18.077458 -34.730402 2.086234 1.858426 -7.759265 0.059928 -29.736349 13.053800 -54.208325 -31.462236 17.480618 -19.249210 -5.617523 -5.741696 -12.809862 -65.329698 -10.132486 179.035657 74.082356 173.892161 0.410634 -10.070703 -0.898685 -0.028474 0.175950 -0.019515 -4.512298 -66.557297 27.020407 -141.205337 72.981166 -142.938115 -1.003923 -3.846792 -0.303477 -0.223069 -0.856805 -0.090624
381.575336 47.640982 62.807556 -62.333662 -30.577495 -0.254864 -0.522531 17.564609 -0.988159 -0.212259 7.787024 -0.677432 -0.212259 7.787024 -0.677432 -0.150269 5.840512 -0.504569 -4.147697 13.324112 1.676913 -8.531248 -11.194417 4.850033 -1.771328 0.280050 8.939657 -4.769043 -19.885913 -19.758383 51.853272 -61.846620 -30.197329 15.754765 -18.074262 -34.728509 2.089013 1.858504 -7.757304 0.076077 -29.727145 13.038169 -54.222760 -31.480451 17.501398 -19.243094 -5.617514 -5.767510 -12.802034 -65.327984 -10.144852 179.004222 74.081636 173.867963 0.409860 -10.068662 -0.896954 -0.028980 0.176202 -0.021537 -4.522938 -66.556222 27.029597 -141.192909 72.975108 -142.929855 -0.994662 -3.857857 -0.300251 -0.230304 -0.856443 -0.093760
381.574572 47.639174 62.806196 -62.335102 -30.583295 -0.261115 -0.516907 17.568799 -0.983051 -0.211484 7.786777 -0.676970 -0.211484 7.786777 -0.676970 -0.149695 5.840326 -0.504234 -4.161552 13.342044 1.677915 -8.556373 -11.159964 4.855840 -1.772343 0.288597 8.937148 -4.772680 -19.883890 -19.749825 51.836064 -61.849836 -30.189668 15.752962 -18.084848 -34.730090 2.094303 1.866845 -7.749312 0.089200 -29.723884 13.019349 -54.215089 -31.511542 17.477375 -19.265724 -5.605610 -5.768851 -12.809461 -65.319024 -10.138189 178.975055 74.081656 173.844574 0.408061 -10.070887 -0.899156 -0.028525 0.178627 -0.021508 -4.548102 -66.546432 27.052627 -141.213437 72.972989 -142.952294 -0.988984 -3.881883 -0.304332 -0.235192 -0.851489 -0.095419
